<?xml version="1.0" standalone="no"?><!DOCTYPE svg PUBLIC "-//W3C//DTD SVG 1.1//EN" "http://www.w3.org/Graphics/SVG/1.1/DTD/svg11.dtd"><svg t="1673155166310" class="icon" viewBox="0 0 1024 1024" version="1.1" xmlns="http://www.w3.org/2000/svg" p-id="9124" xmlns:xlink="http://www.w3.org/1999/xlink" width="200" height="200"><path d="M387.132235 690.176c10.661647-64.075294 39.604706-119.160471 84.314353-165.978353 31.578353-33.069176 68.261647-58.849882 110.607059-76.438588 2.002824-0.843294 4.080941-2.996706 4.833882-5.029647 3.553882-9.366588 6.490353-18.974118 10.059294-28.310588 0.828235-2.168471 2.966588-4.412235 5.074824-5.391059 8.719059-4.005647 15.691294-9.848471 21.157647-17.694118 9.592471-13.718588 11.610353-29.500235 12.167529-45.507765 0.512-14.817882-3.358118-28.340706-14.607059-38.987294-1.084235-1.024-1.505882-3.147294-1.596235-4.788706-0.707765-12.694588-1.159529-25.419294-1.882353-38.098824-2.063059-35.855059-9.306353-70.671059-22.708706-103.951059-13.281882-32.948706-34.469647-59.602824-65.686588-77.673412-54.528-31.563294-112.941176-41.592471-174.531765-30.087529-57.103059 10.661647-99.855059 42.300235-127.608471 93.515294-13.763765 25.404235-20.163765 53.278118-24.003765 81.483294-3.282824 24.064-3.84 48.504471-5.692235 72.764235-0.165647 2.213647-0.406588 4.848941-1.671529 6.475294-20.224 25.856-18.733176 53.037176-4.427294 80.534588 5.150118 9.908706 12.995765 17.904941 23.883294 22.317176 1.912471 0.783059 3.674353 3.252706 4.472471 5.345882 3.945412 10.360471 7.258353 20.961882 11.339294 31.262118 5.752471 14.561882 14.230588 27.166118 27.181176 36.562824 6.068706 4.397176 11.459765 9.743059 17.016471 14.802824 8.207059 7.499294 13.643294 16.64 14.817882 27.813647 0.993882 9.231059 1.536 18.537412 1.882353 27.843765 0.466824 12.965647-3.448471 24.711529-11.158588 35.132235-14.396235 19.531294-34.017882 32.466824-56.048941 41.095529-21.443765 8.402824-43.730824 14.667294-65.761882 21.534118-20.811294 6.475294-42.194824 11.369412-61.048471 23.085176-21.955765 13.628235-38.128941 31.488-42.014118 58.006588-2.138353 14.697412-3.689412 29.485176-4.894118 44.288-2.063059 24.952471-0.752941 49.679059 6.068706 73.999059 3.087059 10.977882 9.020235 18.612706 20.600471 20.766118 25.313882 4.713412 50.522353 10.285176 76.016941 13.658353 37.255529 4.954353 74.691765 8.643765 112.112941 12.242824 51.380706 4.924235 102.881882 7.860706 154.533647 7.393882 1.867294-0.015059 3.719529-0.316235 6.505412-0.527059-1.596235-3.192471-2.710588-5.556706-3.945412-7.845647C387.463529 831.262118 375.070118 762.714353 387.132235 690.176zM705.566118 466.898824c-149.820235-0.015059-271.465412 121.464471-271.570824 271.149176-0.090353 149.76 121.871059 271.465412 271.962353 271.390118 149.398588-0.060235 271.104-121.615059 271.329882-270.968471C977.513412 588.694588 855.672471 466.898824 705.566118 466.898824zM743.408941 721.573647c14.336 0 28.672 0.180706 42.992941-0.090353 4.562824-0.075294 5.872941 1.460706 5.707294 5.857882-0.316235 8.207059-0.090353 16.444235-0.090353 25.298824l-72.116706 0 0 40.207059 71.664941 0 0 30.960941-71.830588 0c-0.120471 2.605176-0.301176 4.683294-0.316235 6.761412-0.015059 15.947294-0.135529 31.879529 0.075294 47.826824 0.075294 4.487529-1.340235 5.918118-5.797647 5.767529-9.125647-0.316235-18.281412-0.316235-27.407059 0-4.412235 0.150588-5.857882-1.159529-5.782588-5.692235 0.256-15.947294 0.090353-31.879529 0.090353-47.841882l0-6.475294-75.158588 0 0-31.021176 74.827294 0 0-40.282353-75.233882 0c0-9.923765-0.180706-19.184941 0.210824-28.446118 0.060235-1.008941 3.282824-2.695529 5.059765-2.710588 17.212235-0.210824 34.394353-0.135529 51.606588-0.135529l6.987294 0c-26.262588-45.101176-52.043294-89.374118-78.351059-134.550588 2.831059-0.180706 4.668235-0.376471 6.520471-0.391529 10.029176-0.030118 20.073412 0.271059 30.087529-0.135529 4.939294-0.195765 7.634824 1.415529 9.938824 5.842824 20.841412 39.951059 41.908706 79.826824 62.930824 119.687529 0.165647 0.316235 0.421647 0.572235 0.376471 0.496941 21.684706-40.297412 43.459765-80.549647 64.978824-120.907294 2.093176-3.885176 4.457412-5.225412 8.749176-5.089882 9.667765 0.316235 19.335529 0.075294 29.018353 0.105412 1.716706 0 3.448471 0.165647 6.174118 0.316235-26.503529 45.071059-52.555294 89.389176-79.179294 134.625882L743.408941 721.558588z" fill="#e6e6e6" p-id="9125"></path></svg>