<?xml version="1.0" standalone="no"?><!DOCTYPE svg PUBLIC "-//W3C//DTD SVG 1.1//EN" "http://www.w3.org/Graphics/SVG/1.1/DTD/svg11.dtd"><svg t="1673155099312" class="icon" viewBox="0 0 1024 1024" version="1.1" xmlns="http://www.w3.org/2000/svg" p-id="8788" xmlns:xlink="http://www.w3.org/1999/xlink" width="200" height="200"><path d="M922 167c0-35.3-28.7-64-64-64H167c-35.3 0-64 28.7-64 64v689c0 35.3 28.7 64 64 64h691c35.3 0 64-28.7 64-64V639H657.5C587.1 639 530 581.9 530 511.5S587.1 384 657.5 384H922V167z" fill="#e6e6e6" p-id="8789"></path><path d="M825 512m-96 0a96 96 0 1 0 192 0 96 96 0 1 0-192 0Z" fill="#e6e6e6" p-id="8790"></path></svg>